<svg width="470" height="322" viewBox="0 0 470 322" fill="none" xmlns="http://www.w3.org/2000/svg">
<g clip-path="url(#clip0_6_2)">
<path d="M124.379 0H145.631C146.749 0 147.644 0.90007 147.644 2.02516V216.467C147.644 217.592 146.749 218.492 145.631 218.492H124.379C123.26 218.492 122.365 217.592 122.365 216.467V2.02516C122.365 0.90007 123.26 0 124.379 0ZM270.681 176.414V181.814C270.681 184.289 270.233 187.44 269.338 191.49C268.667 195.315 266.654 199.591 263.075 203.416C259.719 207.241 254.797 210.842 247.863 213.992C240.928 216.692 231.756 218.267 219.676 218.267C207.596 218.267 198.424 216.692 191.49 213.992C184.555 211.292 179.857 207.691 176.278 203.416C172.922 199.591 170.685 195.315 170.014 191.265C169.343 187.215 168.672 184.064 168.672 181.814V59.6296C168.672 58.5045 169.567 57.6046 170.685 57.6046H191.937C193.056 57.6046 193.95 58.5045 193.95 59.6296V173.939C193.95 177.764 194.398 180.464 195.069 182.489C195.516 184.739 196.635 186.765 198.201 188.565C199.766 190.59 202.227 192.165 205.583 193.515C208.715 194.865 213.189 195.54 218.782 195.54C224.598 195.54 229.295 194.865 232.651 193.515C236.006 192.165 238.691 190.815 240.257 188.79C242.046 186.99 243.165 184.965 243.836 182.714C244.283 180.464 245.178 178.889 245.178 173.488V59.6296C245.178 58.5045 246.073 57.6046 247.192 57.6046H268.443C269.562 57.6046 270.457 58.5045 270.457 59.6296L270.681 176.414ZM343.16 57.8295H357.477C358.819 57.8295 359.714 59.1795 359.267 60.3046L354.345 78.9813C354.121 79.8812 353.227 80.5562 352.556 80.5562H342.489C337.12 80.5562 332.87 81.2312 329.514 82.8064C326.382 84.3817 323.474 85.7317 321.908 87.7567C320.342 89.7821 319.224 91.5822 318.553 93.8325C318.106 96.0824 317.882 97.8825 317.882 99.9079V216.692C317.882 217.817 316.987 218.717 315.868 218.717H294.393C293.274 218.717 292.38 217.817 292.38 216.692V94.5075C292.38 92.2572 292.827 89.1071 293.722 85.0567C294.393 81.0063 296.406 76.9559 299.986 72.9059C303.341 69.0804 308.263 65.4801 315.197 62.33C321.908 59.1795 331.304 57.8295 343.16 57.8295ZM50.5569 57.8295C67.7818 57.8295 80.7567 61.2048 88.8101 68.1805C96.8635 75.1558 100.89 83.7067 100.89 94.0574V181.814C100.89 185.414 100.219 189.24 98.8766 193.515C97.5345 197.79 95.0736 201.841 91.4943 205.216C87.6916 208.816 82.5465 211.741 76.0589 214.217C69.5717 216.692 61.0709 217.817 50.5569 217.817C40.043 217.817 31.5421 216.467 25.0547 214.217C18.5673 211.967 13.4222 208.816 9.61921 205.216C5.81626 201.616 3.35554 197.79 2.23703 193.515C0.894811 189.465 0 185.414 0 181.814V167.863C0 160.437 2.01333 153.462 5.81626 147.161C9.84293 141.086 15.2118 136.586 22.1466 134.11C25.7258 132.76 29.5288 131.635 34.2265 130.06C38.7005 128.485 43.1746 127.135 47.425 125.335C51.6754 123.76 55.2547 122.635 58.61 121.509C61.7419 120.159 63.7555 119.709 64.6502 119.259C65.3213 118.809 66.4397 118.359 67.5581 117.684C68.9006 117.009 70.019 115.884 71.3611 114.759C72.7033 113.184 73.5984 111.834 74.2694 110.034C75.1642 108.234 75.6115 106.208 75.6115 103.733V98.1077C75.6115 96.0824 75.1642 94.2822 74.2694 92.0323C73.5984 89.7821 72.0322 88.2068 70.2427 86.1818C68.4532 84.3817 65.545 83.0313 62.413 81.9065C59.2814 80.7814 55.2547 80.3313 50.1096 80.3313C40.2667 80.3313 33.7791 82.3563 29.9762 86.4067C27.0681 90.007 25.0547 94.2822 24.831 99.2329C24.831 100.358 23.9362 101.033 22.8177 101.033H2.01333C0.894811 101.033 0 100.133 0 99.0076V93.8325C0 88.8818 0.894811 84.1564 2.68443 79.8812C4.47407 75.1558 7.60589 71.3306 11.8562 67.9552C15.8829 64.8051 21.2518 61.8798 27.7392 60.3046C34.0028 58.9546 41.6088 57.8295 50.5569 57.8295ZM76.0589 136.811C75.6115 138.836 74.4931 140.186 73.151 141.311C71.5848 142.436 70.2427 142.886 68.6769 143.561C65.7686 144.686 62.413 145.811 59.0577 146.937C55.7021 148.287 52.3464 149.412 49.4385 150.312C45.8592 151.662 42.2798 152.787 39.3716 153.912C36.911 155.037 34.6739 156.387 32.4369 157.962C30.6473 159.538 29.0814 161.563 27.5155 164.038C25.9495 166.738 25.2784 169.663 25.2784 173.488C25.2784 180.914 27.0681 186.54 30.6473 190.365C34.2265 193.965 40.9377 195.99 50.5569 195.99C60.3998 195.99 67.1108 193.965 70.9138 190.14C74.4931 186.315 76.2826 180.689 76.2826 173.714L76.0589 136.811ZM419.665 57.8295C436.892 57.8295 449.865 61.2048 457.92 68.1805C465.974 75.1558 470 83.7067 470 94.0574V181.814C470 185.414 469.328 189.24 467.987 193.515C466.643 197.79 464.182 201.841 460.604 205.216C457.023 208.591 451.657 211.741 445.167 214.217C438.68 216.692 430.181 217.817 419.665 217.817C409.153 217.817 400.65 216.467 394.164 214.217C387.677 211.967 382.531 208.816 378.73 205.216C374.925 201.616 372.464 197.79 371.347 193.515C370.003 189.24 369.334 185.19 369.334 181.814V167.863C369.334 160.437 371.347 153.462 375.149 147.161C378.954 141.086 384.544 136.586 391.479 134.11C395.06 132.76 398.861 131.635 403.559 130.06C408.033 128.485 412.507 127.135 416.76 125.335C421.01 123.76 424.587 122.635 427.944 121.509C431.074 120.159 433.09 119.709 433.983 119.259C434.655 118.809 435.771 118.359 436.892 117.684C438.232 117.009 439.353 115.884 440.693 114.759C442.038 113.184 442.93 111.834 443.602 110.034C444.498 108.234 444.946 106.208 444.946 103.733V98.1077C444.946 96.0824 444.498 94.2822 443.602 92.0323C442.93 89.7821 441.365 88.2068 439.577 86.1818C437.564 84.3817 434.879 83.0313 431.746 81.9065C428.616 80.7814 424.587 80.3313 419.441 80.3313C409.601 80.3313 403.111 82.3563 399.31 86.4067C396.401 90.007 394.388 94.2822 394.164 99.2329C394.164 100.358 393.271 101.033 392.151 101.033H370.675C369.558 101.033 368.662 100.133 368.662 99.0076V93.8325C368.662 88.8818 369.558 84.1564 371.347 79.8812C373.136 75.6059 376.269 71.5555 380.519 68.1805C384.544 65.03 389.914 62.1047 396.401 60.5298C403.111 58.9546 410.718 57.8295 419.665 57.8295ZM444.946 136.811C444.498 138.836 443.378 140.186 442.037 141.311C440.469 142.436 439.129 142.886 437.564 143.561C434.655 144.686 431.298 145.811 427.944 146.937C424.587 148.287 421.234 149.412 418.325 150.312C414.744 151.662 411.166 152.787 408.257 153.912C405.796 155.037 403.559 156.387 401.322 157.962C399.534 159.538 397.969 161.563 396.401 164.038C394.836 166.513 394.164 169.663 394.164 173.488C394.164 180.914 395.952 186.54 399.534 190.365C403.111 193.965 409.825 195.99 419.441 195.99C429.285 195.99 435.995 193.965 439.801 190.14C443.378 186.315 445.167 180.689 445.167 173.714L444.946 136.811ZM156.592 250.895C156.592 249.769 157.487 248.87 158.605 248.87H170.909C172.028 248.87 172.922 249.769 172.922 250.895V306.024H197.306C198.424 306.024 199.319 306.924 199.319 308.049V319.3C199.319 320.425 198.424 321.325 197.306 321.325H158.605C157.487 321.325 156.592 320.425 156.592 319.3V250.895ZM203.346 318.625L235.335 249.32C235.559 248.644 236.454 248.195 237.125 248.195H238.244C238.915 248.195 239.586 248.644 240.033 249.32L272.023 318.625C272.694 319.975 271.799 321.325 270.233 321.325H258.824C257.035 321.325 256.14 320.65 255.245 318.85L251.666 310.749H223.703L220.124 319.075C219.676 320.2 218.558 321.55 216.544 321.55H205.359C203.346 321.325 202.675 319.975 203.346 318.625ZM245.402 296.573L237.573 279.472L229.967 296.573H245.402ZM285.892 264.17H271.128C270.009 264.17 269.114 263.271 269.114 262.145V250.895C269.114 249.769 270.009 248.87 271.128 248.87H316.539C317.658 248.87 318.553 249.769 318.553 250.895V262.145C318.553 263.271 317.658 264.17 316.539 264.17H301.999V319.3C301.999 320.425 301.104 321.325 299.986 321.325H287.682C286.563 321.325 285.669 320.425 285.669 319.3V264.17H285.892ZM316.092 318.625L348.082 249.32C348.305 248.644 349.2 248.195 349.871 248.195H350.99C351.661 248.195 352.332 248.644 352.779 249.32L384.768 318.625C385.44 319.975 384.544 321.325 382.979 321.325H371.571C369.782 321.325 368.886 320.65 367.99 318.85L364.412 310.749H336.449L332.87 319.075C332.423 320.2 331.304 321.55 329.067 321.55H317.882C316.316 321.325 315.421 319.975 316.092 318.625ZM358.148 296.573L350.319 279.472L342.713 296.573H358.148ZM400.206 249.545C400.206 248.644 401.322 247.969 401.995 247.969H403.559C404.007 247.969 404.904 248.419 405.348 249.094L429.061 293.648H429.285L452.998 249.094C453.222 248.419 454.342 247.969 454.786 247.969H456.355C457.247 247.969 458.144 248.644 458.144 249.545L469.776 318.85C470 320.2 469.104 321.1 467.763 321.1H455.683C454.786 321.1 453.894 320.2 453.67 319.525L448.972 287.573H448.748L431.522 320.875C431.298 321.55 430.405 322 429.733 322H427.944C427.272 322 426.6 321.55 426.155 320.875L408.929 287.573H408.705L404.231 319.525C404.231 320.425 403.335 321.1 402.219 321.1H390.138C388.794 321.1 387.901 320.2 388.125 318.85L400.206 249.545Z" fill="white"/>
</g>
<defs>
<clipPath id="clip0_6_2">
<rect width="470" height="322" fill="white"/>
</clipPath>
</defs>
</svg>
