<svg width="871" height="218" viewBox="0 0 871 218" fill="none" xmlns="http://www.w3.org/2000/svg">
<path d="M207.931 139.56H239.755L222.952 112.393L192.087 161.475H177.993L215.584 102.611C216.407 101.42 217.509 100.449 218.794 99.7837C220.078 99.1182 221.506 98.7783 222.952 98.7936C225.89 98.7936 228.602 100.181 230.213 102.527L267.912 161.502H253.849L247.214 150.531H214.963L207.931 139.56ZM353.931 150.503V99.3604H341.986V155.533C341.986 157.059 342.636 158.557 343.764 159.659C344.892 160.848 346.476 161.498 348.115 161.498H402.473L409.564 150.527H353.931V150.503ZM156.59 141.347C159.344 141.348 162.072 140.805 164.616 139.749C167.161 138.693 169.472 137.145 171.419 135.194C173.365 133.243 174.908 130.926 175.959 128.378C177.011 125.829 177.55 123.098 177.545 120.34C177.545 108.746 168.198 99.3327 156.59 99.3327H104.401V161.443H116.318V110.332H155.798C157.113 110.329 158.416 110.585 159.632 111.087C160.848 111.588 161.954 112.325 162.885 113.254C163.816 114.184 164.556 115.288 165.06 116.504C165.565 117.72 165.825 119.023 165.827 120.34C165.829 123.008 164.775 125.569 162.895 127.461C161.015 129.353 158.464 130.423 155.798 130.435L122.166 130.408L157.805 161.479H175.115L151.198 141.375H156.59V141.347ZM31.0353 161.471H67.0987C71.1701 161.473 75.202 160.672 78.9637 159.112C82.7253 157.553 86.1428 155.266 89.0204 152.382C91.898 149.499 94.1793 146.075 95.7336 142.308C97.288 138.541 98.0848 134.503 98.0786 130.427C98.0786 113.265 84.2692 99.3525 67.0987 99.3525H31.0353C13.8925 99.3525 0 113.265 0 130.427C0 147.59 13.8925 161.471 31.0353 161.471ZM66.2514 150.531H31.7994C26.4785 150.524 21.3781 148.402 17.6183 144.633C13.8584 140.864 11.7466 135.754 11.7466 130.427C11.7414 127.788 12.2563 125.174 13.2619 122.734C14.2675 120.295 15.7439 118.078 17.6067 116.21C19.4694 114.343 21.6819 112.862 24.1173 111.851C26.5527 110.841 29.1633 110.322 31.7994 110.324H66.2514C68.8899 110.318 71.5034 110.834 73.9421 111.843C76.3808 112.851 78.5964 114.331 80.4619 116.199C82.3274 118.067 83.8059 120.286 84.8126 122.728C85.8193 125.169 86.3342 127.786 86.328 130.427C86.3316 133.068 85.8148 135.683 84.8072 138.124C83.7995 140.564 82.3208 142.781 80.4558 144.648C78.5908 146.515 76.3762 147.996 73.9387 149.004C71.5013 150.013 68.8889 150.535 66.2514 150.531ZM292.763 161.471H329.586L336.562 150.531H293.606C290.968 150.533 288.355 150.014 285.916 149.004C283.478 147.995 281.262 146.514 279.395 144.648C277.528 142.781 276.047 140.564 275.036 138.124C274.025 135.684 273.503 133.069 273.502 130.427C273.499 127.784 274.017 125.166 275.027 122.724C276.036 120.282 277.518 118.063 279.386 116.195C281.254 114.327 283.473 112.847 285.913 111.84C288.354 110.832 290.97 110.317 293.61 110.324H328.569L335.632 99.3565H292.795C275.652 99.3565 261.728 113.269 261.728 130.427C261.7 147.59 275.624 161.471 292.763 161.471ZM438.651 150.531C434.28 150.534 430.028 149.108 426.541 146.47C423.054 143.831 420.524 140.124 419.335 135.913H470.308L477.34 124.973H419.335C420.519 120.759 423.047 117.048 426.535 114.408C430.023 111.768 434.279 110.343 438.651 110.352H473.638L480.642 99.3842H437.86C420.744 99.3842 406.852 113.297 406.852 130.455C406.851 134.532 407.652 138.569 409.21 142.336C410.768 146.103 413.052 149.526 415.932 152.408C418.811 155.291 422.23 157.578 425.992 159.137C429.755 160.697 433.787 161.499 437.86 161.498H474.683L481.687 150.559H438.651" fill="#FDEEC2"/>
<path d="M558.105 106.994H552.741V152.992H558.105V106.994Z" fill="#FDEEC2"/>
<path d="M578.399 132.663V127.296H532.454V132.667L578.399 132.663ZM693.375 27.7455H704.132C704.698 27.7455 705.177 28.2251 705.177 28.7919V136.959C705.173 137.236 705.062 137.5 704.867 137.695C704.672 137.89 704.408 138.002 704.132 138.006H693.375C693.099 138.002 692.836 137.89 692.641 137.695C692.446 137.5 692.334 137.236 692.33 136.959V28.7919C692.33 28.2251 692.809 27.7455 693.375 27.7455ZM767.474 116.745V119.488C767.474 120.705 767.276 122.318 766.824 124.407C766.46 126.388 765.415 128.481 763.633 130.459C761.939 132.441 759.397 134.248 755.897 135.747C752.394 137.158 747.706 137.923 741.664 137.923C735.619 137.923 730.904 137.158 727.431 135.743C723.928 134.332 721.501 132.552 719.691 130.459C717.997 128.477 716.869 126.388 716.5 124.323C716.136 122.262 715.851 120.732 715.851 119.516V57.8572C715.851 57.2904 716.334 56.8108 716.896 56.8108H727.657C728.223 56.8108 728.702 57.2864 728.702 57.8572V115.528C728.702 117.427 728.983 118.838 729.269 119.888C729.55 121.018 730.112 122.06 730.876 122.996C731.723 124.042 732.939 124.779 734.661 125.453C736.268 126.103 738.529 126.499 741.352 126.499C744.262 126.499 746.633 126.135 748.328 125.453C750.022 124.803 751.348 124.042 752.196 123.107C753.062 122.286 753.679 121.238 753.977 120.082C754.258 118.953 754.626 118.101 754.626 115.445V57.8532C754.626 57.2904 755.105 56.8108 755.672 56.8108H766.429C766.995 56.8108 767.474 57.2864 767.474 57.8572V116.745ZM804.214 56.9218H811.471C812.12 56.9218 812.603 57.5718 812.405 58.1386L809.947 67.58C809.864 68.0636 809.385 68.345 809.016 68.345H803.933C801.193 68.345 799.02 68.7136 797.325 69.4746C795.714 70.2396 794.304 70.9729 793.457 72.0193C792.61 73.0657 792.044 74.0011 791.763 75.0435C791.478 76.1771 791.395 77.1086 791.395 78.0717V136.959C791.39 137.236 791.279 137.5 791.084 137.695C790.889 137.89 790.625 138.002 790.349 138.006H779.505C779.229 138.002 778.966 137.89 778.771 137.695C778.576 137.5 778.464 137.236 778.46 136.959V75.4121C778.46 74.2825 778.658 72.6693 779.109 70.6082C779.478 68.5432 780.523 66.5336 782.3 64.4725C783.995 62.4907 786.537 60.6833 790.04 59.185C793.398 57.659 798.2 56.9257 804.214 56.9257V56.9218ZM655.926 56.9218C664.684 56.9218 671.204 58.6182 675.358 62.126C679.424 65.6299 681.486 69.9542 681.486 75.1585V119.488C681.486 121.271 681.118 123.277 680.441 125.425C679.792 127.605 678.549 129.583 676.656 131.363C674.764 133.146 672.139 134.672 668.833 135.885C665.531 137.102 661.208 137.669 655.926 137.669C650.562 137.669 646.326 137.019 643.024 135.885C639.718 134.756 637.093 133.146 635.2 131.367C633.308 129.583 631.982 127.574 631.416 125.425C630.766 123.249 630.37 121.271 630.37 119.488V112.421C630.37 108.631 631.416 105.155 633.28 102.044C635.198 98.9415 638.133 96.6029 641.583 95.4285C643.36 94.7785 645.367 94.2156 647.711 93.3674C649.968 92.5152 652.229 91.8652 654.402 91.017C656.576 90.256 658.357 89.6059 660.052 89.0391C661.659 88.3891 662.677 88.1077 663.072 87.9095C663.441 87.7113 664.003 87.4299 664.569 87.0613C665.218 86.6927 665.784 86.1298 666.461 85.563C667.111 84.798 667.59 84.0648 667.958 83.2165C668.437 82.2811 668.607 81.2347 668.607 80.0219V77.1958C668.607 76.1494 668.409 75.214 667.958 74.0843C667.59 72.9547 666.83 72.1025 665.895 71.1711C664.965 70.2396 663.552 69.5618 661.944 68.9911C660.333 68.4282 658.27 68.1468 655.728 68.1468C650.732 68.1468 647.426 69.1932 645.534 71.2583C644.037 73.0379 643.079 75.214 642.909 77.7586C642.909 78.3254 642.43 78.694 641.864 78.694H631.301C631.026 78.6889 630.763 78.5769 630.569 78.3817C630.374 78.1864 630.264 77.9232 630.26 77.6476V75.0158C630.26 72.4711 630.739 70.1009 631.669 67.9486C632.603 65.7686 634.128 63.7908 636.301 62.0943C638.678 60.2618 641.41 58.9432 644.322 58.2219C647.541 57.4886 651.409 56.9218 655.926 56.9218ZM668.861 96.7286C668.663 97.775 668.101 98.425 667.364 98.9918C666.663 99.4626 665.904 99.8422 665.107 100.121C663.607 100.688 661.885 101.255 660.19 101.818C658.57 102.433 656.932 102.999 655.277 103.514C653.499 104.164 651.69 104.731 650.194 105.298C648.961 105.866 647.789 106.557 646.694 107.359C645.759 108.207 644.999 109.143 644.235 110.471C643.475 111.798 643.107 113.297 643.107 115.191C643.107 118.98 644.037 121.81 645.847 123.673C647.624 125.457 651.041 126.499 655.926 126.499C660.927 126.499 664.316 125.453 666.208 123.59C667.986 121.608 668.948 118.865 668.948 115.274L668.861 96.7286ZM842.875 56.9218C851.628 56.9218 858.153 58.6182 862.306 62.126C866.372 65.6299 868.435 69.9542 868.435 75.1585V119.488C868.435 121.271 868.066 123.277 867.389 125.425C866.74 127.605 865.497 129.583 863.604 131.363C861.712 133.146 859.087 134.672 855.781 135.885C852.475 137.102 848.156 137.669 842.875 137.669C837.51 137.669 833.246 137.019 829.968 135.885C826.666 134.756 824.041 133.146 822.149 131.367C820.256 129.583 818.958 127.574 818.364 125.425C817.715 123.249 817.319 121.271 817.319 119.488V112.421C817.319 108.631 818.364 105.155 820.229 102.044C822.146 98.9415 825.081 96.6029 828.531 95.4285C830.308 94.7785 832.316 94.2156 834.659 93.3674C836.916 92.5152 839.177 91.8652 841.35 91.017C843.524 90.256 845.305 89.6059 847 89.0391C848.607 88.3891 849.625 88.1077 850.021 87.9095C850.389 87.7113 850.951 87.4299 851.517 87.0613C852.167 86.6927 852.733 86.1298 853.41 85.563C854.059 84.798 854.538 84.0648 854.906 83.2165C855.385 82.2811 855.556 81.2347 855.556 80.0219V77.1958C855.556 76.1494 855.358 75.214 854.906 74.0843C854.538 72.9547 853.778 72.1025 852.844 71.1711C851.798 70.2396 850.5 69.5618 848.892 68.9911C847.281 68.4282 845.218 68.1468 842.677 68.1468C837.68 68.1468 834.374 69.1932 832.482 71.2583C830.985 73.0379 830.027 75.214 829.857 77.7586C829.857 78.3254 829.378 78.694 828.812 78.694H817.968C817.692 78.6899 817.429 78.5784 817.233 78.383C817.038 78.1877 816.927 77.9239 816.923 77.6476V75.0158C816.923 72.4711 817.402 70.1009 818.336 67.9486C819.267 65.7686 820.791 63.7908 822.968 62.0943C825.344 60.2618 828.074 58.9432 830.985 58.2219C834.892 57.3702 838.877 56.9344 842.875 56.9218ZM855.698 96.7286C855.5 97.775 854.934 98.425 854.202 98.9918C853.499 99.4626 852.739 99.8422 851.941 100.121C850.444 100.688 848.75 101.255 847.028 101.818C845.408 102.433 843.769 102.999 842.114 103.514C840.333 104.164 838.527 104.731 837.031 105.298C835.797 105.866 834.623 106.557 833.527 107.359C832.597 108.207 831.833 109.143 831.073 110.471C830.308 111.687 829.94 113.297 829.94 115.191C829.94 118.98 830.875 121.81 832.68 123.673C834.462 125.457 837.878 126.499 842.764 126.499C847.76 126.499 851.149 125.453 853.042 123.59C854.819 121.608 855.781 118.865 855.781 115.274L855.698 96.7286ZM709.722 154.32C709.722 153.813 710.146 153.329 710.712 153.329H716.896C717.407 153.329 717.886 153.813 717.886 154.32V182.085H730.254C730.82 182.085 731.244 182.561 731.244 183.076V188.729C731.244 189.236 730.82 189.719 730.254 189.719H710.74C710.479 189.716 710.229 189.611 710.045 189.426C709.861 189.24 709.756 188.99 709.754 188.729V154.324H709.722V154.32ZM733.303 188.36L749.571 153.389C749.741 153.076 750.077 152.822 750.446 152.822H750.952C751.321 152.822 751.689 153.076 751.831 153.389L768.095 188.36C768.408 189.038 767.984 189.719 767.22 189.719H761.46C760.526 189.719 760.102 189.406 759.651 188.415L757.79 184.317H743.668L741.803 188.475C741.662 188.851 741.407 189.173 741.073 189.396C740.739 189.618 740.343 189.73 739.942 189.715H734.237C733.39 189.715 732.994 189.042 733.303 188.36ZM754.626 177.25L750.671 168.684H750.616L746.716 177.246H754.626V177.25ZM775.154 160.963H767.727C767.466 160.96 767.216 160.855 767.032 160.669C766.848 160.484 766.743 160.234 766.741 159.972V154.32C766.741 153.813 767.165 153.329 767.727 153.329H790.773C791.339 153.329 791.763 153.813 791.763 154.32V159.976C791.763 160.484 791.339 160.967 790.773 160.967H783.346V188.729C783.346 189.236 782.867 189.719 782.356 189.719H776.116C775.858 189.707 775.613 189.599 775.43 189.415C775.247 189.232 775.139 188.987 775.127 188.729V160.963H775.154ZM790.405 188.36L806.673 153.389C806.843 153.076 807.179 152.822 807.548 152.822H808.054C808.423 152.822 808.791 153.076 808.929 153.389L825.197 188.36C825.506 189.038 825.082 189.719 824.322 189.719H818.562C817.628 189.719 817.204 189.406 816.753 188.415L814.888 184.317H800.77L798.905 188.475C798.764 188.852 798.508 189.174 798.173 189.397C797.838 189.62 797.442 189.731 797.04 189.715H791.339C790.52 189.715 790.096 189.042 790.405 188.36ZM811.756 177.25L807.801 168.684H807.746L803.846 177.246H811.756V177.25ZM833.048 153.642C833.082 153.418 833.193 153.212 833.364 153.062C833.534 152.912 833.752 152.827 833.979 152.822H834.798C835.051 152.822 835.534 153.02 835.673 153.329L847.732 175.779H847.847L859.903 153.329C860.001 153.184 860.13 153.063 860.282 152.975C860.433 152.887 860.603 152.835 860.778 152.822H861.597C862.021 152.822 862.472 153.191 862.531 153.642L868.403 188.586C868.518 189.264 868.039 189.715 867.417 189.715H861.288C860.809 189.715 860.354 189.295 860.299 188.899L857.955 172.838H857.844L849.118 189.688C849.022 189.841 848.894 189.971 848.742 190.069C848.59 190.167 848.418 190.23 848.239 190.255H847.309C847.127 190.24 846.953 190.181 846.8 190.082C846.647 189.983 846.521 189.847 846.434 189.688L837.653 172.842H837.538L835.249 188.895C835.207 189.126 835.085 189.335 834.905 189.485C834.725 189.636 834.498 189.719 834.264 189.719H828.135C827.513 189.719 827.034 189.236 827.145 188.586L833.048 153.642Z" fill="#FDEEC2"/>
</svg>
